<mxfile host="app.diagrams.net" agent="Mozilla/5.0 (Macintosh; Intel Mac OS X 10_15_7) AppleWebKit/605.1.15 (KHTML, like Gecko) Version/17.5 Safari/605.1.15" version="26.2.2">
  <diagram name="第 1 页" id="vN8b3t6IUPXs9Uko8Ln7">
    <mxGraphModel dx="805" dy="461" grid="1" gridSize="10" guides="1" tooltips="1" connect="1" arrows="1" fold="1" page="1" pageScale="1" pageWidth="827" pageHeight="1169" math="0" shadow="0">
      <root>
        <mxCell id="0" />
        <mxCell id="1" parent="0" />
        <mxCell id="UKsl6Ec4g9CgcUqSqF3G-350" value="" style="endArrow=classic;html=1;rounded=0;" edge="1" parent="1" target="UKsl6Ec4g9CgcUqSqF3G-374">
          <mxGeometry width="50" height="50" relative="1" as="geometry">
            <mxPoint x="477" y="887" as="sourcePoint" />
            <mxPoint x="727" y="937" as="targetPoint" />
          </mxGeometry>
        </mxCell>
        <mxCell id="UKsl6Ec4g9CgcUqSqF3G-351" value="" style="outlineConnect=0;dashed=0;verticalLabelPosition=bottom;verticalAlign=top;align=center;html=1;shape=mxgraph.aws3.mqtt_protocol;fillColor=#5294CF;gradientColor=none;" vertex="1" parent="1">
          <mxGeometry x="300" y="864.5" width="52" height="52.5" as="geometry" />
        </mxCell>
        <mxCell id="UKsl6Ec4g9CgcUqSqF3G-352" value="" style="shape=flexArrow;endArrow=classic;startArrow=classic;html=1;rounded=0;startWidth=12.333333333333334;startSize=3.223333333333333;width=5;endWidth=12.333333333333334;endSize=3.223333333333333;fillColor=#d5e8d4;strokeColor=none;" edge="1" parent="1">
          <mxGeometry width="100" height="100" relative="1" as="geometry">
            <mxPoint x="359" y="892" as="sourcePoint" />
            <mxPoint x="423" y="892" as="targetPoint" />
          </mxGeometry>
        </mxCell>
        <mxCell id="UKsl6Ec4g9CgcUqSqF3G-353" value="&lt;font style=&quot;font-size: 10px;&quot;&gt;订阅主题&lt;/font&gt;" style="text;html=1;align=center;verticalAlign=middle;whiteSpace=wrap;rounded=0;" vertex="1" parent="1">
          <mxGeometry x="360" y="861" width="60" height="30" as="geometry" />
        </mxCell>
        <mxCell id="UKsl6Ec4g9CgcUqSqF3G-354" value="" style="endArrow=classic;html=1;rounded=0;exitX=1.043;exitY=0.664;exitDx=0;exitDy=0;exitPerimeter=0;edgeStyle=orthogonalEdgeStyle;curved=1;" edge="1" parent="1" source="UKsl6Ec4g9CgcUqSqF3G-378" target="UKsl6Ec4g9CgcUqSqF3G-376">
          <mxGeometry width="50" height="50" relative="1" as="geometry">
            <mxPoint x="487" y="987" as="sourcePoint" />
            <mxPoint x="537" y="937" as="targetPoint" />
          </mxGeometry>
        </mxCell>
        <mxCell id="UKsl6Ec4g9CgcUqSqF3G-355" value="" style="shape=message;html=1;html=1;outlineConnect=0;labelPosition=center;verticalLabelPosition=bottom;align=center;verticalAlign=top;" vertex="1" parent="1">
          <mxGeometry x="420" y="816.25" width="15" height="10" as="geometry" />
        </mxCell>
        <mxCell id="UKsl6Ec4g9CgcUqSqF3G-356" value="&lt;font style=&quot;font-size: 10px;&quot;&gt;路由表&lt;/font&gt;" style="text;html=1;align=center;verticalAlign=middle;whiteSpace=wrap;rounded=0;" vertex="1" parent="1">
          <mxGeometry x="434" y="814" width="40" height="14.25" as="geometry" />
        </mxCell>
        <mxCell id="UKsl6Ec4g9CgcUqSqF3G-357" value="&lt;span style=&quot;font-size: 8px;&quot;&gt;akka stream&lt;/span&gt;" style="text;html=1;align=center;verticalAlign=middle;whiteSpace=wrap;rounded=0;fontStyle=1" vertex="1" parent="1">
          <mxGeometry x="352" y="890" width="78" height="30" as="geometry" />
        </mxCell>
        <mxCell id="UKsl6Ec4g9CgcUqSqF3G-358" value="" style="group" vertex="1" connectable="0" parent="1">
          <mxGeometry x="366" y="971" width="57" height="52.5" as="geometry" />
        </mxCell>
        <mxCell id="UKsl6Ec4g9CgcUqSqF3G-359" value="" style="sketch=0;points=[[0,0,0],[0.25,0,0],[0.5,0,0],[0.75,0,0],[1,0,0],[0,1,0],[0.25,1,0],[0.5,1,0],[0.75,1,0],[1,1,0],[0,0.25,0],[0,0.5,0],[0,0.75,0],[1,0.25,0],[1,0.5,0],[1,0.75,0]];outlineConnect=0;fontColor=#232F3E;fillColor=#01A88D;strokeColor=#ffffff;dashed=0;verticalLabelPosition=bottom;verticalAlign=top;align=center;html=1;fontSize=12;fontStyle=0;aspect=fixed;shape=mxgraph.aws4.resourceIcon;resIcon=mxgraph.aws4.augmented_ai;" vertex="1" parent="UKsl6Ec4g9CgcUqSqF3G-358">
          <mxGeometry x="9.5" width="35" height="35" as="geometry" />
        </mxCell>
        <mxCell id="UKsl6Ec4g9CgcUqSqF3G-360" value="&lt;font style=&quot;font-size: 10px;&quot;&gt;AI &lt;font&gt;负载&lt;/font&gt;&lt;/font&gt;" style="text;html=1;align=center;verticalAlign=middle;whiteSpace=wrap;rounded=0;" vertex="1" parent="UKsl6Ec4g9CgcUqSqF3G-358">
          <mxGeometry x="-1" y="35" width="57" height="17.5" as="geometry" />
        </mxCell>
        <mxCell id="UKsl6Ec4g9CgcUqSqF3G-361" value="" style="shape=message;html=1;html=1;outlineConnect=0;labelPosition=center;verticalLabelPosition=bottom;align=center;verticalAlign=top;" vertex="1" parent="1">
          <mxGeometry x="479" y="855" width="15" height="10" as="geometry" />
        </mxCell>
        <mxCell id="UKsl6Ec4g9CgcUqSqF3G-362" value="&lt;font style=&quot;font-size: 10px;&quot;&gt;路由表&lt;/font&gt;" style="text;html=1;align=center;verticalAlign=middle;whiteSpace=wrap;rounded=0;" vertex="1" parent="1">
          <mxGeometry x="494" y="851.75" width="40" height="14.25" as="geometry" />
        </mxCell>
        <mxCell id="UKsl6Ec4g9CgcUqSqF3G-363" value="" style="endArrow=classic;html=1;rounded=0;exitX=0.5;exitY=1;exitDx=0;exitDy=0;entryX=0.5;entryY=0;entryDx=0;entryDy=0;edgeStyle=orthogonalEdgeStyle;curved=1;" edge="1" parent="1" source="UKsl6Ec4g9CgcUqSqF3G-375" target="UKsl6Ec4g9CgcUqSqF3G-380">
          <mxGeometry width="50" height="50" relative="1" as="geometry">
            <mxPoint x="478" y="917" as="sourcePoint" />
            <mxPoint x="528" y="967" as="targetPoint" />
          </mxGeometry>
        </mxCell>
        <mxCell id="UKsl6Ec4g9CgcUqSqF3G-364" value="&lt;font style=&quot;font-size: 8px;&quot;&gt;http请求&lt;/font&gt;" style="text;html=1;align=center;verticalAlign=middle;whiteSpace=wrap;rounded=0;" vertex="1" parent="1">
          <mxGeometry x="434" y="966" width="40" height="14.25" as="geometry" />
        </mxCell>
        <mxCell id="UKsl6Ec4g9CgcUqSqF3G-365" value="" style="outlineConnect=0;dashed=0;verticalLabelPosition=bottom;verticalAlign=top;align=center;html=1;shape=mxgraph.aws3.http_protocol;fillColor=#009900;gradientColor=none;" vertex="1" parent="1">
          <mxGeometry x="422" y="966.25" width="15" height="15" as="geometry" />
        </mxCell>
        <mxCell id="UKsl6Ec4g9CgcUqSqF3G-366" value="" style="group" vertex="1" connectable="0" parent="1">
          <mxGeometry x="557" y="964" width="57" height="68.5" as="geometry" />
        </mxCell>
        <mxCell id="UKsl6Ec4g9CgcUqSqF3G-367" value="" style="group" vertex="1" connectable="0" parent="UKsl6Ec4g9CgcUqSqF3G-366">
          <mxGeometry x="4" width="53" height="51" as="geometry" />
        </mxCell>
        <mxCell id="UKsl6Ec4g9CgcUqSqF3G-368" value="" style="outlineConnect=0;dashed=0;verticalLabelPosition=bottom;verticalAlign=top;align=center;html=1;shape=mxgraph.aws3.mqtt_protocol;fillColor=#5294CF;gradientColor=none;" vertex="1" parent="UKsl6Ec4g9CgcUqSqF3G-367">
          <mxGeometry x="13" width="40" height="40" as="geometry" />
        </mxCell>
        <mxCell id="UKsl6Ec4g9CgcUqSqF3G-369" value="" style="outlineConnect=0;dashed=0;verticalLabelPosition=bottom;verticalAlign=top;align=center;html=1;shape=mxgraph.aws3.mqtt_protocol;fillColor=#5294CF;gradientColor=none;" vertex="1" parent="UKsl6Ec4g9CgcUqSqF3G-367">
          <mxGeometry x="6" y="5" width="40" height="40" as="geometry" />
        </mxCell>
        <mxCell id="UKsl6Ec4g9CgcUqSqF3G-370" value="" style="outlineConnect=0;dashed=0;verticalLabelPosition=bottom;verticalAlign=top;align=center;html=1;shape=mxgraph.aws3.mqtt_protocol;fillColor=#5294CF;gradientColor=none;" vertex="1" parent="UKsl6Ec4g9CgcUqSqF3G-367">
          <mxGeometry y="11" width="40" height="40" as="geometry" />
        </mxCell>
        <mxCell id="UKsl6Ec4g9CgcUqSqF3G-371" value="&lt;font style=&quot;font-size: 10px;&quot;&gt;其他节点&lt;/font&gt;" style="text;html=1;align=center;verticalAlign=middle;whiteSpace=wrap;rounded=0;" vertex="1" parent="UKsl6Ec4g9CgcUqSqF3G-366">
          <mxGeometry y="51" width="57" height="17.5" as="geometry" />
        </mxCell>
        <mxCell id="UKsl6Ec4g9CgcUqSqF3G-372" value="" style="endArrow=classic;html=1;rounded=0;exitX=0.5;exitY=1;exitDx=0;exitDy=0;entryX=0.5;entryY=0;entryDx=0;entryDy=0;entryPerimeter=0;edgeStyle=orthogonalEdgeStyle;curved=1;" edge="1" parent="1" source="UKsl6Ec4g9CgcUqSqF3G-375" target="UKsl6Ec4g9CgcUqSqF3G-369">
          <mxGeometry width="50" height="50" relative="1" as="geometry">
            <mxPoint x="575" y="933" as="sourcePoint" />
            <mxPoint x="460" y="987" as="targetPoint" />
          </mxGeometry>
        </mxCell>
        <mxCell id="UKsl6Ec4g9CgcUqSqF3G-373" value="&lt;font size=&quot;1&quot;&gt;转发&lt;/font&gt;" style="text;html=1;align=center;verticalAlign=middle;whiteSpace=wrap;rounded=0;" vertex="1" parent="1">
          <mxGeometry x="572" y="931" width="40" height="14.25" as="geometry" />
        </mxCell>
        <mxCell id="UKsl6Ec4g9CgcUqSqF3G-374" value="" style="sketch=0;outlineConnect=0;fontColor=#232F3E;gradientColor=none;strokeColor=#232F3E;fillColor=#ffffff;dashed=0;verticalLabelPosition=bottom;verticalAlign=top;align=center;html=1;fontSize=12;fontStyle=0;aspect=fixed;shape=mxgraph.aws4.resourceIcon;resIcon=mxgraph.aws4.router;" vertex="1" parent="1">
          <mxGeometry x="536" y="859.5" width="55" height="55" as="geometry" />
        </mxCell>
        <mxCell id="UKsl6Ec4g9CgcUqSqF3G-375" value="&lt;font style=&quot;font-size: 10px;&quot;&gt;Router Actor&lt;/font&gt;" style="text;html=1;align=center;verticalAlign=middle;whiteSpace=wrap;rounded=0;" vertex="1" parent="1">
          <mxGeometry x="524" y="907" width="80" height="17.5" as="geometry" />
        </mxCell>
        <mxCell id="UKsl6Ec4g9CgcUqSqF3G-376" value="" style="ellipse;whiteSpace=wrap;html=1;aspect=fixed;strokeWidth=2;fillColor=#dae8fc;strokeColor=none;" vertex="1" parent="1">
          <mxGeometry x="431" y="867" width="40" height="40" as="geometry" />
        </mxCell>
        <mxCell id="UKsl6Ec4g9CgcUqSqF3G-377" value="&lt;font style=&quot;font-size: 10px;&quot;&gt;Sub Actor&lt;/font&gt;" style="text;html=1;align=center;verticalAlign=middle;whiteSpace=wrap;rounded=0;" vertex="1" parent="1">
          <mxGeometry x="409.5" y="905" width="84.5" height="17.5" as="geometry" />
        </mxCell>
        <mxCell id="UKsl6Ec4g9CgcUqSqF3G-378" value="" style="ellipse;whiteSpace=wrap;html=1;aspect=fixed;strokeWidth=2;fillColor=#ffe6cc;strokeColor=none;" vertex="1" parent="1">
          <mxGeometry x="359" y="790" width="40" height="40" as="geometry" />
        </mxCell>
        <mxCell id="UKsl6Ec4g9CgcUqSqF3G-379" value="&lt;font style=&quot;font-size: 10px;&quot;&gt;Actor&lt;/font&gt;" style="text;html=1;align=center;verticalAlign=middle;whiteSpace=wrap;rounded=0;" vertex="1" parent="1">
          <mxGeometry x="332" y="822.5" width="95.5" height="30" as="geometry" />
        </mxCell>
        <mxCell id="UKsl6Ec4g9CgcUqSqF3G-380" value="&amp;lt;/&amp;gt;" style="rounded=1;arcSize=5;fillColor=#666666;strokeColor=none;fontColor=#ffffff;align=center;verticalAlign=middle;whiteSpace=wrap;fontSize=10;fontStyle=1;html=1;sketch=0;" vertex="1" parent="1">
          <mxGeometry x="479.0000000000002" y="971.0000000000002" width="35" height="35" as="geometry" />
        </mxCell>
        <mxCell id="UKsl6Ec4g9CgcUqSqF3G-381" value="" style="endArrow=classic;html=1;rounded=0;" edge="1" parent="1">
          <mxGeometry width="50" height="50" relative="1" as="geometry">
            <mxPoint x="473" y="987" as="sourcePoint" />
            <mxPoint x="413" y="987" as="targetPoint" />
          </mxGeometry>
        </mxCell>
        <mxCell id="UKsl6Ec4g9CgcUqSqF3G-382" value="&lt;font style=&quot;font-size: 10px;&quot;&gt;AI Service&lt;/font&gt;" style="text;html=1;align=center;verticalAlign=middle;whiteSpace=wrap;rounded=0;" vertex="1" parent="1">
          <mxGeometry x="469" y="1006" width="57" height="17.5" as="geometry" />
        </mxCell>
        <mxCell id="UKsl6Ec4g9CgcUqSqF3G-383" value="&lt;font size=&quot;1&quot;&gt;转发&lt;/font&gt;" style="text;html=1;align=center;verticalAlign=middle;whiteSpace=wrap;rounded=0;" vertex="1" parent="1">
          <mxGeometry x="505" y="931" width="40" height="14.25" as="geometry" />
        </mxCell>
        <mxCell id="UKsl6Ec4g9CgcUqSqF3G-384" value="" style="sketch=0;outlineConnect=0;fontColor=#232F3E;gradientColor=none;fillColor=#232F3D;strokeColor=none;dashed=0;verticalLabelPosition=bottom;verticalAlign=top;align=center;html=1;fontSize=12;fontStyle=0;aspect=fixed;pointerEvents=1;shape=mxgraph.aws4.data_stream;" vertex="1" parent="1">
          <mxGeometry x="478.9999999999999" y="868.1299999999999" width="15.75" height="15.75" as="geometry" />
        </mxCell>
        <mxCell id="UKsl6Ec4g9CgcUqSqF3G-385" value="&lt;font size=&quot;1&quot;&gt;数据&lt;/font&gt;" style="text;html=1;align=center;verticalAlign=middle;whiteSpace=wrap;rounded=0;" vertex="1" parent="1">
          <mxGeometry x="488.75" y="868.13" width="40" height="14.25" as="geometry" />
        </mxCell>
      </root>
    </mxGraphModel>
  </diagram>
</mxfile>
